{
  "accessors": [
    {
      "bufferView": 2,
      "componentType": 5126,
      "count": 3849,
      "max": [
        2.4686880111694336,
        -0.021082449704408646,
        11.55900764465332
      ],
      "min": [
        -2.9996926784515381,
        -6.225644588470459,
        -3.4977178573608398
      ],
      "type": "VEC3"
    },
    {
      "bufferView": 2,
      "byteOffset": 46188,
      "componentType": 5126,
      "count": 3849,
      "max": [
        0.99983835220336914,
        0.99999922513961792,
        0.99957400560379028
      ],
      "min": [
        -0.99980419874191284,
        -0.99987000226974487,
        -0.99970316886901855
      ],
      "type": "VEC3"
    },
    {
      "bufferView": 3,
      "componentType": 5126,
      "count": 3849,
      "max": [
        0.99955672025680542,
        0.99987781047821045,
        0.99996775388717651,
        1
      ],
      "min": [
        -0.99992895126342773,
        -0.99837005138397217,
        -0.99926942586898804,
        -1
      ],
      "type": "VEC4"
    },
    {
      "bufferView": 3,
      "byteOffset": 61584,
      "componentType": 5126,
      "count": 3849,
      "max": [
        1,
        1,
        1,
        1
      ],
      "min": [
        1,
        1,
        1,
        1
      ],
      "type": "VEC4"
    },
    {
      "bufferView": 1,
      "componentType": 5126,
      "count": 3849,
      "max": [
        0.99804002046585083,
        0.85515999794006348
      ],
      "min": [
        0.0019499999471008778,
        0.0019499999471008778
      ],
      "type": "VEC2"
    },
    {
      "bufferView": 0,
      "componentType": 5125,
      "count": 14916,
      "max": [
        3848
      ],
      "min": [
        0
      ],
      "type": "SCALAR"
    }
  ],
  "asset": {
    "extras": {
      "author": "Adrien Bavant (https://sketchfab.com/SDRN)",
      "license": "CC-BY-4.0 (http://creativecommons.org/licenses/by/4.0/)",
      "source": "https://sketchfab.com/models/5cb15660fdac49fc9c4a02cb75ba1b4e",
      "title": "Adidas Stan Smith"
    },
    "generator": "Sketchfab-3.23.4",
    "version": "2.0"
  },
  "bufferViews": [
    {
      "buffer": 0,
      "byteLength": 59664,
      "byteOffset": 0,
      "name": "floatBufferViews",
      "target": 34963
    },
    {
      "buffer": 0,
      "byteLength": 30792,
      "byteOffset": 59664,
      "byteStride": 8,
      "name": "floatBufferViews",
      "target": 34962
    },
    {
      "buffer": 0,
      "byteLength": 92376,
      "byteOffset": 90456,
      "byteStride": 12,
      "name": "floatBufferViews",
      "target": 34962
    },
    {
      "buffer": 0,
      "byteLength": 123168,
      "byteOffset": 182832,
      "byteStride": 16,
      "name": "floatBufferViews",
      "target": 34962
    }
  ],
  "buffers": [
    {
      "byteLength": 306000,
      "uri": "scene.bin"
    }
  ],
  "images": [
    {
      "uri": "textures/defaultMat_baseColor.jpg"
    },
    {
      "uri": "textures/defaultMat_normal.jpg"
    },
    {
      "uri": "textures/defaultMat_metallicRoughness.png"
    }
  ],
  "materials": [
    {
      "doubleSided": true,
      "name": "defaultMat",
      "normalTexture": {
        "index": 1,
        "scale": 0.59999999999999998,
        "texCoord": 0
      },
      "occlusionTexture": {
        "index": 2,
        "strength": 1,
        "texCoord": 0
      },
      "pbrMetallicRoughness": {
        "baseColorFactor": [
          3,
          3,
          3,
          3
        ],
        "baseColorTexture": {
          "index": 0,
          "texCoord": 0
        },
        "metallicFactor": 0,
        "metallicRoughnessTexture": {
          "index": 2,
          "texCoord": 0
        },
        "roughnessFactor": 1
      }
    }
  ],
  "meshes": [
    {
      "primitives": [
        {
          "attributes": {
            "COLOR_0": 3,
            "NORMAL": 1,
            "POSITION": 0,
            "TANGENT": 2,
            "TEXCOORD_0": 4
          },
          "indices": 5,
          "material": 0,
          "mode": 4
        }
      ]
    }
  ],
  "nodes": [
    {
      "children": [
        1
      ],
      "name": "RootNode (gltf orientation matrix)",
      "rotation": [
        -0.70710678118654746,
        -0,
        -0,
        0.70710678118654757
      ]
    },
    {
      "children": [
        2
      ],
      "matrix": [
        0.99961549043655396,
        0,
        -0.027728114277124405,
        0,
        -0.02772783488035202,
        -0.0044854623265564442,
        -0.99960541725158691,
        0,
        -0.00012437340046744794,
        0.99998992681503296,
        -0.0044837375171482563,
        0,
        -0.086204797029495239,
        -7.167973518371582,
        0.91922688484191895,
        1
      ],
      "name": "RootNode (model correction matrix)"
    },
    {
      "children": [
        3
      ],
      "name": "d79a7f031e2347099056b42c6ede914e.obj.cleaner.materialmerger.gles"
    },
    {
      "mesh": 0,
      "name": ""
    }
  ],
  "samplers": [
    {
      "magFilter": 9729,
      "minFilter": 9987,
      "wrapS": 10497,
      "wrapT": 10497
    }
  ],
  "scene": 0,
  "scenes": [
    {
      "name": "OSG_Scene",
      "nodes": [
        0
      ]
    }
  ],
  "textures": [
    {
      "sampler": 0,
      "source": 0
    },
    {
      "sampler": 0,
      "source": 1
    },
    {
      "sampler": 0,
      "source": 2
    }
  ]
}

